<?xml version="1.0" encoding="UTF-8" standalone="no"?>
<!-- Created with Inkscape (http://www.inkscape.org/) -->

<svg
   xmlns:dc="http://purl.org/dc/elements/1.1/"
   xmlns:cc="http://creativecommons.org/ns#"
   xmlns:rdf="http://www.w3.org/1999/02/22-rdf-syntax-ns#"
   xmlns:svg="http://www.w3.org/2000/svg"
   xmlns="http://www.w3.org/2000/svg"
   xmlns:xlink="http://www.w3.org/1999/xlink"
   xmlns:sodipodi="http://sodipodi.sourceforge.net/DTD/sodipodi-0.dtd"
   xmlns:inkscape="http://www.inkscape.org/namespaces/inkscape"
   width="50"
   height="50"
   viewBox="0 0 13.229167 13.229167"
   version="1.1"
   id="svg8"
   inkscape:version="0.92.4 (5da689c313, 2019-01-14)"
   sodipodi:docname="sprites8.svg">
  <defs
     id="defs2">
    <inkscape:path-effect
       effect="bend_path"
       id="path-effect7760"
       is_visible="true"
       bendpath="m -6.614584,314.23737 c 0.691257,0 1.354203,0.2746 1.842997,0.76339 0.133669,0.13367 0.25132,0.28036 0.351718,0.4371 0.0976,0.15237 0.178897,0.31423 0.242752,0.48284"
       prop_scale="0.95"
       scale_y_rel="false"
       vertical="false" />
    <pattern
       patternUnits="userSpaceOnUse"
       width="9.9999985"
       height="9.9999871"
       patternTransform="matrix(0.26458334,0,0,0.26458334,17.197917,253.34373)"
       id="pattern3185">
      <path
         inkscape:connector-curvature="0"
         id="rect3070"
         d="M 9.9999985,5.011729 5.0117177,9.9999871 h 4.9882808 z"
         style="opacity:1;fill:#000000;fill-opacity:1;fill-rule:nonzero;stroke:none;stroke-width:1.0023917;stroke-linecap:butt;stroke-linejoin:round;stroke-miterlimit:4;stroke-dasharray:1.00239168, 1.00239168;stroke-dashoffset:0;stroke-opacity:1" />
      <path
         inkscape:connector-curvature="0"
         id="rect3080"
         d="M 4.9882808,0 0,4.9882959 V 9.9999871 L 9.9999985,0 Z"
         style="opacity:1;fill:#000000;fill-opacity:1;fill-rule:nonzero;stroke:none;stroke-width:1.0023917;stroke-linecap:butt;stroke-linejoin:round;stroke-miterlimit:4;stroke-dasharray:1.00239168, 1.00239168;stroke-dashoffset:0;stroke-opacity:1" />
    </pattern>
    <pattern
       patternUnits="userSpaceOnUse"
       width="9.9999985"
       height="9.9999871"
       patternTransform="matrix(0.26458334,0,0,0.26458334,17.197917,253.34373)"
       id="pattern3215">
      <path
         inkscape:connector-curvature="0"
         id="path3211"
         d="M 9.9999985,5.011729 5.0117177,9.9999871 h 4.9882808 z"
         style="opacity:1;fill:#4d4d4d;fill-opacity:1;fill-rule:nonzero;stroke:none;stroke-width:1.0023917;stroke-linecap:butt;stroke-linejoin:round;stroke-miterlimit:4;stroke-dasharray:1.00239168, 1.00239168;stroke-dashoffset:0;stroke-opacity:1" />
      <path
         inkscape:connector-curvature="0"
         id="path3213"
         d="M 4.9882808,0 0,4.9882959 V 9.9999871 L 9.9999985,0 Z"
         style="opacity:1;fill:#4d4d4d;fill-opacity:1;fill-rule:nonzero;stroke:none;stroke-width:1.0023917;stroke-linecap:butt;stroke-linejoin:round;stroke-miterlimit:4;stroke-dasharray:1.00239168, 1.00239168;stroke-dashoffset:0;stroke-opacity:1" />
    </pattern>
    <clipPath
       clipPathUnits="userSpaceOnUse"
       id="clipPath1555">
      <circle
         r="20"
         cy="88.38829"
         cx="153.09311"
         id="circle1557"
         style="opacity:1;fill:#808080;fill-opacity:1;fill-rule:nonzero;stroke:#666666;stroke-width:1;stroke-linecap:butt;stroke-linejoin:miter;stroke-miterlimit:4;stroke-dasharray:none;stroke-dashoffset:0;stroke-opacity:1"
         transform="rotate(15.000001)" />
    </clipPath>
  </defs>
  <sodipodi:namedview
     id="base"
     pagecolor="#ffffff"
     bordercolor="#666666"
     borderopacity="1.0"
     inkscape:pageopacity="0.0"
     inkscape:pageshadow="2"
     inkscape:zoom="2"
     inkscape:cx="-42.652504"
     inkscape:cy="-27.905808"
     inkscape:document-units="px"
     inkscape:current-layer="layer1"
     showgrid="true"
     units="px"
     showguides="true"
     inkscape:guide-bbox="true"
     inkscape:snap-global="true"
     inkscape:snap-to-guides="true"
     inkscape:snap-intersection-paths="true"
     inkscape:snap-bbox="true"
     inkscape:snap-others="true"
     inkscape:snap-center="true"
     inkscape:snap-grids="true"
     inkscape:window-width="1874"
     inkscape:window-height="1016"
     inkscape:window-x="46"
     inkscape:window-y="27"
     inkscape:window-maximized="1"
     inkscape:bbox-paths="true"
     inkscape:snap-smooth-nodes="false"
     inkscape:bbox-nodes="true"
     inkscape:object-paths="true"
     inkscape:snap-object-midpoints="true"
     inkscape:snap-nodes="true"
     inkscape:snap-bbox-edge-midpoints="true">
    <inkscape:grid
       type="xygrid"
       id="grid1366"
       spacingx="1.3229167"
       spacingy="1.3229167"
       color="#ff9d3f"
       opacity="0.1254902"
       empspacing="10"
       enabled="true" />
  </sodipodi:namedview>
  <metadata
     id="metadata5">
    <rdf:RDF>
      <cc:Work
         rdf:about="">
        <dc:format>image/svg+xml</dc:format>
        <dc:type
           rdf:resource="http://purl.org/dc/dcmitype/StillImage" />
        <dc:title></dc:title>
      </cc:Work>
    </rdf:RDF>
  </metadata>
  <g
     inkscape:label="Layer 1"
     inkscape:groupmode="layer"
     id="layer1"
     transform="translate(0,-283.77082)"
     style="display:inline">
    <path
       style="opacity:1;fill:#e6e6e6;fill-opacity:1;fill-rule:nonzero;stroke:none;stroke-width:0.07637863;stroke-linecap:butt;stroke-linejoin:round;stroke-miterlimit:4;stroke-dasharray:0.07637863, 0.07637863;stroke-dashoffset:0;stroke-opacity:1"
       d="m 0,283.77082 v 13.22917 l 13.229167,-1e-5 v -4.40971 -8.81945 z"
       id="rect1417"
       inkscape:connector-curvature="0"
       sodipodi:nodetypes="cccccc" />
    <path
       style="opacity:1;fill:#808080;fill-opacity:1;fill-rule:nonzero;stroke:#333333;stroke-width:0.26458335;stroke-linecap:butt;stroke-linejoin:round;stroke-miterlimit:4;stroke-dasharray:none;stroke-dashoffset:0;stroke-opacity:1"
       d="m 9.260417,286.41666 c -0.730626,0 -1.368393,0.6295 -1.368393,1.36013 0,0 0.03677,0.8043 -0.183238,1.02342 -0.43307,0.43132 -2.890419,2.83175 -4.232881,4.13933 -0.164409,0.16014 -0.366328,0.10805 -0.629568,0.27878 -0.0027,0.002 -0.0045,0.004 -0.0067,0.007 -0.124066,0.12402 -0.193757,0.29226 -0.193784,0.46768 0,0.36531 0.296146,0.66145 0.661459,0.66145 0.175419,-2e-5 0.343646,-0.0697 0.467672,-0.19378 l 0.316217,-0.5352 4.319085,-4.32228 c 0.245903,-0.27628 0.850151,-0.2404 0.850151,-0.2404 0.730626,0 1.360125,-0.56749 1.360125,-1.29811 0,-0.15712 -0.03612,-0.3279 -0.176877,-0.5634 -0.148592,0.2228 -0.353398,0.83749 -0.703003,1.09154 -0.323022,0.10702 -1.115412,-0.18913 -1.138438,-0.41818 -0.04635,-0.46104 0.516538,-1.03963 0.658193,-1.45769 z"
       id="path3248"
       inkscape:connector-curvature="0"
       sodipodi:nodetypes="ccsssscccccccccsc" />
    <path
       style="fill:#d4aa00;stroke:#000000;stroke-width:0.26458335px;stroke-linecap:butt;stroke-linejoin:round;stroke-opacity:1"
       d="m -5.6103421,314.76384 c -0.073144,0.15885 -0.1468691,0.31742 -0.2211746,0.47571 -0.1392623,-0.38444 -0.4323634,-0.76744 -0.8719252,-1.03776 0.4199824,-0.27571 0.9755153,-0.44281 1.5861606,-0.43595 -0.069744,0.13471 -0.1390263,0.26964 -0.2078447,0.40481 0.2768357,0.18913 0.5154078,0.42034 0.7039663,0.67968 0,0 0,0 0,0 0.1204383,0.16625 0.2203134,0.34291 0.2986145,0.52519 0.063213,0.14717 0.1123054,0.29788 0.1473169,0.44955 -0.083608,-0.13137 -0.177762,-0.25332 -0.2803607,-0.36433 0,0 0,0 -1e-7,0 -0.1270663,-0.13749 -0.2671296,-0.25823 -0.4156609,-0.36032 -0.2305889,-0.15862 -0.4830273,-0.27025 -0.7390921,-0.33658 z"
       id="path4042"
       inkscape:connector-curvature="0"
       sodipodi:nodetypes="ccccccc"
       inkscape:transform-center-x="-1.1764257"
       inkscape:transform-center-y="-2.0487983"
       inkscape:tile-cx="19.842573"
       inkscape:tile-cy="33.07333"
       inkscape:tile-w="2.7927685"
       inkscape:tile-h="2.3239514"
       inkscape:tile-x0="19.622611"
       inkscape:tile-y0="29.862526"
       inkscape:original-d="m 19.835483,288.12157 0.01122,0.55231 -1.449894,-0.90124 1.449085,-0.82307 -0.01041,0.47898 2.160565,0.34409 z"
       inkscape:path-effect="#path-effect7760"
       transform="translate(-26.458334,52.916668)" />
    <use
       x="0"
       y="0"
       inkscape:tiled-clone-of="#path4042"
       xlink:href="#path4042"
       id="use2267"
       width="100%"
       height="100%"
       inkscape:transform-center-x="-15.768985"
       inkscape:transform-center-y="22.273881" />
  </g>
</svg>
